<?xml version="1.0"?>
<svg xmlns="http://www.w3.org/2000/svg" xmlns:xlink="http://www.w3.org/1999/xlink" version="1.1" id="Layer" x="0px" y="0px" width="512px" height="512px" viewBox="0 0 64 64" enable-background="new 0 0 64 64" xml:space="preserve" class=""><g><path fill="#CCE4FF" d="M42,48c0-3.31-2.69-6-6-6h-2V26H10v20h20v2c0,3.31,2.69,6,6,6h6h6c3.31,0,6-2.69,6-6v-6h-6  C44.69,42,42,44.69,42,48z" data-original="#CCE4FF" class="active-path" style="fill:#56B292" data-old_color="#FE473E"/><rect x="34" y="10" fill="#CCE4FF" width="8" height="8" data-original="#CCE4FF" class="active-path" style="fill:#56B292" data-old_color="#FE473E"/><rect x="18" y="10" fill="#CCE4FF" width="8" height="8" data-original="#CCE4FF" class="active-path" style="fill:#56B292" data-old_color="#FE473E"/><path fill="#007AFF" d="M54,41h-6c-1.958,0-3.728,0.81-5,2.111V18v-8c0-0.553-0.448-1-1-1H10c-0.552,0-1,0.447-1,1v8v30  c0,3.859,3.14,7,7,7h20h6h6c3.86,0,7-3.141,7-7v-6C55,41.447,54.552,41,54,41z M36,53c-2.757,0-5-2.243-5-5v-5h5  c2.757,0,5,2.243,5,5v3.586l-4.293-4.293c-0.391-0.391-1.023-0.391-1.414,0s-0.391,1.023,0,1.414L39.586,53H36z M27,17v-6h6v6H27z   M25,17h-6v-6h6V17z M41,19v24.111C39.728,41.81,37.958,41,36,41h-1V26c0-0.553-0.448-1-1-1H11v-6H41z M11,27h22v14h-3  c-0.552,0-1,0.447-1,1v3H11V27z M41,17h-6v-6h6V17z M17,11v6h-6v-6H17z M16,53c-2.757,0-5-2.243-5-5v-1h18v1  c0,1.958,0.81,3.728,2.111,5H16z M53,48c0,2.757-2.243,5-5,5h-3.586l4.293-4.293c0.391-0.391,0.391-1.023,0-1.414  s-1.023-0.391-1.414,0L43,51.586V48c0-2.757,2.243-5,5-5h5V48z" data-original="#007AFF" class="" style="fill:#C7EEEE" data-old_color="#FE473E"/></g> </svg>
