<?xml version="1.0"?>
<svg xmlns="http://www.w3.org/2000/svg" height="512px" viewBox="0 0 512 512.15376" width="512px"><g><path d="m318.386719 298.027344c-5.957031-4.417969-13.203125-6.753906-20.617188-6.648438.011719-4.570312-.855469-9.097656-2.5625-13.335937-5.648437-13.902344-19.90625-21.890625-39.117187-21.890625-13.300782-1.132813-26.324219 4.277344-34.90625 14.507812-4.433594 5.953125-6.777344 13.199219-6.675782 20.617188-4.5625-.007813-9.082031.863281-13.320312 2.558594-13.917969 5.640624-21.894531 19.902343-21.894531 39.117187-1.136719 13.308594 4.273437 26.339844 14.503906 34.925781 5.949219 4.4375 13.191406 6.792969 20.609375 6.699219 0 4.550781.867188 9.0625 2.558594 13.289063 5.660156 13.898437 19.917968 21.886718 39.125 21.886718 13.304687 1.132813 26.328125-4.277344 34.910156-14.507812 4.433594-5.953125 6.777344-13.203125 6.675781-20.625 4.558594.019531 9.082031-.832032 13.320313-2.515625 13.917968-5.675781 21.894531-19.933594 21.894531-39.152344 1.136719-13.308594-4.273437-26.339844-14.503906-34.925781zm-65.28125 42.855468c-.277344-.113281-.550781-.246093-.8125-.394531-.613281-.316406-1.1875-.707031-1.707031-1.160156-.257813-.210937-.503907-.4375-.730469-.683594-.425781-.492187-.789063-1.03125-1.09375-1.601562-.019531-.09375-.042969-.1875-.078125-.273438-.257813-.503906-.476563-1.03125-.648438-1.570312-.265625-.722657-.425781-1.476563-.476562-2.246094.015625-1.023437.222656-2.035156.605468-2.984375.113282-.292969.246094-.578125.394532-.855469.3125-.613281.699218-1.183593 1.148437-1.707031.230469-.253906.445313-.519531.691407-.75.492187-.417969 1.03125-.777344 1.605468-1.074219.09375-.050781.195313-.042969.289063-.085937.511719-.261719 1.042969-.484375 1.589843-.667969 1.683594-.644531 3.554688-.585937 5.195313.164063.277344.113281.550781.246093.8125.390624.613281.316407 1.1875.707032 1.707031 1.164063.257813.207031.503906.4375.730469.679687.417969.484376.78125 1.015626 1.078125 1.578126.015625.085937.039062.167968.066406.25v.066406c.257813.507812.472656 1.03125.648438 1.570312.273437.726563.445312 1.488282.503906 2.261719-.015625 1.023437-.222656 2.039063-.605469 2.988281-.113281.289063-.246093.574219-.394531.851563-.3125.613281-.699219 1.1875-1.148438 1.707031-.222656.261719-.457031.511719-.703124.75-.484376.421875-1.023438.78125-1.59375 1.078125-.09375.042969-.195313.042969-.289063.082031-.515625.261719-1.042969.484375-1.589844.667969-1.683593.644531-3.554687.585937-5.195312-.164063zm-21.332031-46.160156c-.84375-4.78125.238281-9.707031 3.011718-13.695312 5.507813-5.761719 13.378906-8.644532 21.304688-7.808594 12.085937 0 20.355468 3.996094 23.296875 11.238281 1.652343 4.652344 1.730469 9.714844.222656 14.414063l-.042969.113281c-.425781 1.496094-.941406 2.964844-1.542968 4.402344l-.136719.304687c-.59375 1.378906-1.257813 2.722656-1.996094 4.027344-.105469.191406-.199219.378906-.308594.566406-.734375 1.289063-1.5625 2.558594-2.441406 3.832032-.128906.175781-.238281.355468-.367187.542968-.128907.1875-.289063.34375-.417969.523438-.398438-.324219-.851563-.574219-1.261719-.855469s-.855469-.613281-1.296875-.851563c-.914063-.574218-1.859375-1.089843-2.832031-1.546874-.460938-.210938-.914063-.449219-1.394532-.640626-1.054687-.40625-2.136718-.746093-3.242187-1.003906-.460937-.121094-.894531-.28125-1.363281-.367187-1.601563-.34375-3.234375-.53125-4.875-.5625-1.277344 0-2.550782.105469-3.8125.3125-.613282-.554688-1.261719-1.039063-1.886719-1.570313-.621094-.527344-1.167969-.996094-1.765625-1.472656-1.707031-1.378906-3.460938-2.65625-5.265625-3.832031-.304687-.207031-.605469-.4375-.902344-.632813-1.964843-1.246094-3.996093-2.386718-6.085937-3.414062-.851563-.398438-1.628906-.734375-2.441406-1.089844-.808594-.359375-1.449219-.648438-2.183594-.933594zm-13.910157 62.578125c-4.769531.84375-9.683593-.242187-13.652343-3.015625-5.792969-5.503906-8.695313-13.386718-7.851563-21.332031 0-12.082031 3.992187-20.359375 11.238281-23.296875 2.269532-.894531 4.691406-1.339844 7.132813-1.3125 2.832031.078125 5.632812.574219 8.320312 1.46875 1.109375.339844 2.21875.707031 3.335938 1.167969.5625.238281 1.125.527343 1.707031.800781 1.476562.6875 2.914062 1.457031 4.308594 2.296875 1.179687.714844 2.347656 1.433594 3.507812 2.269531l.425782.339844c-.339844.410156-.597657.855469-.910157 1.308594-.316406.449218-.582031.808594-.855469 1.226562-.589843.929688-1.117187 1.894532-1.578124 2.894532-.214844.453124-.433594.851562-.625 1.339843-.410157 1.070313-.75 2.167969-1.011719 3.285157-.121094.453124-.273438.851562-.359375 1.339843-.324219 1.605469-.492188 3.234375-.503906 4.871094-.003907 1.277344.105468 2.554687.316406 3.816406-.546875.605469-1.023438 1.246094-1.546875 1.859375-.519531.613282-1.023438 1.203125-1.507813 1.808594-1.367187 1.707031-2.636718 3.414062-3.808594 5.230469-.203124.308593-.441406.613281-.636718.921875-1.25 1.976562-2.390625 4.019531-3.414063 6.117187-.375.777344-.691406 1.546875-1.035156 2.3125-.339844.769531-.707031 1.511719-.996094 2.28125zm59.5625 27.578125c-5.515625 5.769532-13.398437 8.652344-21.335937 7.808594-12.082032 0-20.351563-3.992188-23.292969-11.238281-1.652344-4.652344-1.730469-9.714844-.222656-14.414063v-.109375c.425781-1.503906.941406-2.976562 1.550781-4.414062l.121094-.289063c.597656-1.378906 1.265625-2.726562 2.003906-4.035156.105469-.1875.199219-.375.308594-.5625.742187-1.289062 1.5625-2.5625 2.449218-3.839844.128907-.179687.230469-.359375.359376-.53125.128906-.171875.289062-.347656.417968-.527344.316406.253907.699219.433594 1.03125.679688.683594.515625 1.398438.984375 2.132813 1.425781.734375.445313 1.453125.855469 2.210937 1.203125.796875.371094 1.617188.695313 2.449219.972656.792969.292969 1.601563.542969 2.421875.753907.847656.1875 1.703125.335937 2.5625.441406.867188.136719 1.742188.222656 2.617188.265625.273437 0 .539062.085938.855468.085938.851563 0 1.636719-.171876 2.457032-.25.453124-.050782.90625 0 1.355468-.066407.199219.179688.410156.332031.617188.511719.765625.683594 1.558594 1.3125 2.34375 1.953125s1.707031 1.410156 2.5625 2.058594c.851562.648437 1.707031 1.210937 2.558594 1.789062.855468.582031 1.621093 1.121094 2.449218 1.632813 1.015625.628906 2.039063 1.183594 3.074219 1.707031.671875.367187 1.347656.757813 2.027344 1.097656 1.257812.625 2.511719 1.164063 3.773437 1.707031.367188.144532.726563.34375 1.09375.480469.859375 4.777344-.199218 9.703125-2.953125 13.703125zm27.160157-28.628906c-4.605469 1.644531-9.621094 1.742188-14.285157.273438-.085937 0-.152343-.078126-.238281-.101563-3.09375-.882813-6.070312-2.136719-8.867188-3.730469l-.355468-.195312c-1.351563-.769532-2.679688-1.621094-3.996094-2.5625-.144531-.109375-.296875-.195313-.441406-.296875-.144532-.101563-.359375-.300781-.546875-.433594.339843-.410156.597656-.855469.914062-1.308594.3125-.449219.578125-.808593.851563-1.226562.582031-.933594 1.109375-1.898438 1.570312-2.894531.203125-.441407.433594-.851563.621094-1.339844.410156-1.070313.75-2.164063 1.015625-3.277344.121094-.449219.273437-.851562.359375-1.347656.324219-1.597656.492188-3.222656.503906-4.855469 0-1.277344-.105468-2.554687-.316406-3.8125.546875-.605469 1.023438-1.246094 1.546875-1.863281.519531-.613282 1.023437-1.203125 1.507813-1.808594 1.367187-1.707031 2.636718-3.410156 3.808593-5.230469.203125-.304687.441407-.613281.636719-.921875 1.25-1.976562 2.386719-4.019531 3.414062-6.117187.375-.777344.691407-1.542969 1.035157-2.3125.339843-.769531.714843-1.511719 1.003906-2.277344 4.773437-.832031 9.679687.25 13.65625 3.011719 5.785156 5.503906 8.683594 13.390625 7.839844 21.332031 0 12.082031-3.992188 20.359375-11.238281 23.296875zm0 0" data-original="#000000" class="active-path" data-old_color="#000000" fill="#FE473E"/><path d="m486.492188 460.953125c-2.972657.027344-5.914063.578125-8.695313 1.621094 0-.546875.160156-1.066407.160156-1.621094-.027343-2.96875-.574219-5.914063-1.621093-8.695313.546874 0 1.066406.164063 1.621093.164063 12.535157.066406 23.277344-8.953125 25.375-21.3125 2.101563-12.359375-5.058593-24.417969-16.910156-28.496094-11.855469-4.078125-24.917969 1.027344-30.863281 12.0625-7.355469-5.253906-15.640625-10.5625-24.832032-15.988281 5.753907-8.097656 6.304688-18.789062 1.417969-27.433594-4.886719-8.644531-14.335937-13.683594-24.238281-12.925781s-18.472656 7.175781-21.988281 16.464844c-5.785157-2.84375-12.03125-5.84375-18.894531-9.078125v-220.496094c-.027344-23.550781-19.113282-42.636719-42.664063-42.664062h-17.066406v-44.238282c11.746093-4.136718 18.796875-16.144531 16.683593-28.417968-2.109374-12.273438-12.765624-21.234376-25.21875-21.210938h-85.332031c-12.453125-.023438-23.109375 8.9375-25.21875 21.210938-2.113281 12.273437 4.9375 24.28125 16.683594 28.417968v44.238282h-17.066406c-23.550781.027343-42.636719 19.113281-42.664063 42.664062v102.9375c-3.269531-2.429688-6.4375-4.878906-9.566406-7.320312-3.042969-11.070313-13.085938-18.761719-24.570312-18.816407 13.839843.070313 25.230468-10.867187 25.71875-24.699219.484374-13.832031-10.109376-25.542968-23.917969-26.445312-13.8125-.902344-25.835938 9.335938-27.152344 23.113281-27.878906-31.074219-48.03125-68.289062-58.820313-108.621093 9.886719-.382813 18.65625-6.46875 22.46875-15.597657 3.816407-9.128906 1.988282-19.644531-4.683593-26.949219 7.703125-8.476562 8.839843-21.039062 2.78125-30.757812-6.058594-9.722656-17.839844-14.234375-28.84375-11.050781-11 3.183593-18.5507815 13.289062-18.4843752 24.742187.0234372 6.316406 2.3984372 12.402344 6.6562502 17.066406-9.152344 9.972657-8.851563 25.378907.683594 34.988282 3.789062 17.339844 9.21875 34.28125 16.214843 50.59375-11.667969.902344-21.230469 9.625-23.199219 21.160156-1.964843 11.539062 4.160157 22.933594 14.871094 27.65625 10.707032 4.722656 23.257813 1.558594 30.445313-7.679688 7.328125 11.277344 15.390625 22.058594 24.132812 32.273438-8.726562 6.636719-12.234375 18.109375-8.714843 28.492188 3.519531 10.382812 13.28125 17.355468 24.246093 17.316406-.050781 11.582031 7.707031 21.746094 18.894531 24.75 11.1875 3.007812 22.996094-1.902344 28.753907-11.949219 3.941406 2.960937 7.972656 5.882813 12.085937 8.761719v200.304687c.027344 23.550781 19.113282 42.636719 42.664063 42.664063h136.535156c23.550781-.027344 42.636719-19.113282 42.664063-42.664063v-84.863281c6.90625 3.300781 13.160156 6.363281 19.03125 9.308594 4.6875 11.34375 16.773437 17.765625 28.800781 15.300781 13.554687 7.488281 26.539062 15.964844 38.84375 25.367187.09375.300782.167969.617188.28125.914063-.546875 0-1.066407-.160156-1.621094-.160156-14.140625 0-25.601563 11.460937-25.601563 25.597656 0 14.140625 11.460938 25.601563 25.601563 25.601563 2.96875-.027344 5.914063-.578126 8.695313-1.621094 0 .546875-.164063 1.066406-.164063 1.621094 0 14.136718 11.460937 25.597656 25.601563 25.597656 14.136718 0 25.597656-11.460938 25.597656-25.597656 0-14.140626-11.460938-25.601563-25.597656-25.601563zm-460.800782-298.667969c-4.710937 0-8.53125-3.820312-8.53125-8.53125 0-4.714844 3.820313-8.535156 8.53125-8.535156 4.714844 0 8.535156 3.820312 8.535156 8.535156 0 4.710938-3.820312 8.53125-8.535156 8.53125zm85.332032 25.601563c4.714843 0 8.535156 3.820312 8.535156 8.535156 0 4.710937-3.820313 8.53125-8.535156 8.53125-4.710938 0-8.53125-3.820313-8.53125-8.53125 0-4.714844 3.820312-8.535156 8.53125-8.535156zm-85.332032-119.464844c-4.710937 0-8.53125-3.820313-8.53125-8.535156 0-4.710938 3.820313-8.53125 8.53125-8.53125 4.714844 0 8.535156 3.820312 8.535156 8.53125 0 4.714843-3.820312 8.535156-8.535156 8.535156zm0-51.203125c4.714844 0 8.535156 3.820312 8.535156 8.535156 0 4.710938-3.820312 8.53125-8.535156 8.53125-4.710937 0-8.53125-3.820312-8.53125-8.53125 0-4.714844 3.820313-8.535156 8.53125-8.535156zm51.199219 204.800781c0-4.710937 3.820313-8.53125 8.535156-8.53125 4.710938 0 8.53125 3.820313 8.53125 8.53125 0 4.714844-3.820312 8.535157-8.53125 8.535157-4.714843 0-8.535156-3.820313-8.535156-8.535157zm34.132813 34.132813c-4.710938 0-8.53125-3.820313-8.53125-8.53125 0-4.714844 3.820312-8.535156 8.53125-8.535156 4.714843 0 8.535156 3.820312 8.535156 8.535156 0 4.710937-3.820313 8.53125-8.535156 8.53125zm51.203124-17.066406h187.730469v187.734374h-187.730469zm51.199219-213.332032h85.332031c4.714844 0 8.535157 3.820313 8.535157 8.53125 0 4.714844-3.820313 8.535156-8.535157 8.535156h-85.332031c-4.714843 0-8.535156-3.820312-8.535156-8.535156 0-4.710937 3.820313-8.53125 8.535156-8.53125zm8.53125 34.132813h68.269531v42.667969h-68.269531zm-34.132812 59.734375h136.535156c14.136719 0 25.597656 11.460937 25.597656 25.597656v76.800781h-187.730469v-76.800781c0-14.136719 11.460938-25.597656 25.597657-25.597656zm136.535156 375.464844h-136.535156c-14.136719 0-25.597657-11.460938-25.597657-25.597657v-25.601562h187.730469v25.601562c0 14.136719-11.460937 25.597657-25.597656 25.597657zm153.597656-76.800782c4.714844 0 8.535157 3.824219 8.535157 8.535156 0 4.714844-3.820313 8.535157-8.535157 8.535157-4.710937 0-8.53125-3.820313-8.53125-8.535157 0-4.710937 3.820313-8.535156 8.53125-8.535156zm-76.796875-34.132812c0-4.710938 3.820313-8.53125 8.53125-8.53125 4.714844 0 8.535156 3.820312 8.535156 8.53125 0 4.714844-3.820312 8.535156-8.535156 8.535156-4.710937 0-8.53125-3.820312-8.53125-8.535156zm51.199219 85.335937c-4.714844 0-8.535156-3.820312-8.535156-8.535156 0-4.710937 3.820312-8.53125 8.535156-8.53125 4.710937 0 8.53125 3.820313 8.53125 8.53125 0 4.714844-3.820313 8.535156-8.53125 8.535156zm34.132813 25.597657c-4.714844 0-8.535157-3.820313-8.535157-8.53125 0-4.714844 3.820313-8.535157 8.535157-8.535157 4.710937 0 8.53125 3.820313 8.53125 8.535157 0 4.710937-3.820313 8.53125-8.53125 8.53125zm0 0" data-original="#000000" class="active-path" data-old_color="#000000" fill="#FE473E"/></g> </svg>
