<?xml version="1.0"?>
<svg xmlns="http://www.w3.org/2000/svg" height="512px" viewBox="0 0 512 512.01551" width="512px" class=""><g><path d="m59.742188 322.226562v38.246094c.007812 8.285156 6.722656 15 15.007812 15.007813h27.65625v27.660156c.011719 8.285156 6.726562 15 15.011719 15.007813h38.246093c8.285157-.007813 15-6.722657 15.011719-15.007813v-27.660156h27.65625c8.285157-.007813 15-6.722657 15.007813-15.007813v-38.246094c-.007813-8.285156-6.722656-15-15.007813-15.011718h-27.65625v-27.65625c-.011719-8.285156-6.726562-15-15.011719-15.007813h-38.246093c-8.285157.007813-15 6.722657-15.011719 15.007813v27.65625h-27.65625c-8.285156.011718-15 6.726562-15.007812 15.011718zm17.066406 2.054688h27.65625c8.285156-.007812 15-6.722656 15.007812-15.007812v-27.65625h34.136719v27.65625c.007813 8.285156 6.722656 15 15.007813 15.007812h27.65625v34.132812h-27.65625c-8.285157.011719-15 6.726563-15.007813 15.011719v27.65625h-34.136719v-27.65625c-.007812-8.285156-6.722656-15-15.007812-15.011719h-27.65625zm0 0" data-original="#000000" class="active-path" data-old_color="#01607E" fill="#FE473E"/><path d="m42.675781 512.015625h187.730469c23.554688-.027344 42.640625-19.113281 42.667969-42.667969v-273.066406c-.027344-23.550781-19.113281-42.636719-42.667969-42.664062h-19.734375c8.386719-27.640626 12.171875-56.46875 11.203125-85.335938 0-45.933594-13.960938-68.265625-42.667969-68.265625h-85.332031c-28.707031 0-42.667969 22.332031-42.667969 68.265625-.96875 28.867188 2.816407 57.695312 11.203125 85.335938h-19.734375c-23.554687.027343-42.6406248 19.113281-42.6679685 42.664062v273.066406c.0273437 23.554688 19.1132815 42.640625 42.6679685 42.667969zm0-17.066406c-1.582031-.011719-3.15625-.171875-4.703125-.476563-.46875-.085937-.929687-.222656-1.398437-.335937-1.046875-.257813-2.074219-.578125-3.082031-.960938-.476563-.179687-.957032-.378906-1.417969-.589843-.996094-.460938-1.960938-.984376-2.890625-1.570313-.351563-.222656-.726563-.417969-1.066406-.648437-1.214844-.851563-2.355469-1.800782-3.414063-2.84375-.179687-.179688-.332031-.390626-.511719-.578126-.851562-.898437-1.636718-1.855468-2.355468-2.859374-.28125-.402344-.539063-.851563-.792969-1.238282-.554688-.886718-1.058594-1.808594-1.503907-2.753906-.203124-.453125-.425781-.914062-.605468-1.382812-.109375-.265626-.160156-.554688-.261719-.855469h235.765625c-.101562.273437-.152344.5625-.257812.855469-.1875.46875-.40625.929687-.621094 1.390624-.441406.945313-.9375 1.863282-1.492188 2.746094-.257812.417969-.511718.855469-.792968 1.238282-.71875 1.003906-1.507813 1.960937-2.355469 2.859374-.179688.1875-.335938.398438-.511719.578126-1.058594 1.042968-2.199219 1.992187-3.414062 2.84375-.34375.230468-.71875.425781-1.066407.648437-.929687.585937-1.898437 1.109375-2.894531 1.570313-.460938.210937-.9375.410156-1.417969.589843-1.003906.382813-2.035156.703125-3.078125.960938-.46875.113281-.921875.25-1.398437.335937-1.558594.308594-3.140625.464844-4.730469.476563zm162.132813-426.667969c0 49.101562-7.722656 76.460938-12.800782 85.335938h-9.8125c10.65625-53.566407 3.328126-112.992188-.425781-136.476563 8.863281.410156 23.039063 4.753906 23.039063 51.140625zm-59.734375 85.335938v-136.535157h19.386719c3.347656 20.308594 11.804687 82.976563.28125 136.535157zm-36.691407 0c-11.503906-53.496094-3.058593-116.207032.289063-136.535157h19.335937v136.535157zm-40.109374-85.335938c0-46.386719 14.175781-50.730469 23.039062-51.140625-3.753906 23.484375-11.089844 82.910156-.425781 136.476563h-9.8125c-5.121094-8.875-12.800781-36.234376-12.800781-85.335938zm-25.597657 102.402344h187.730469c14.140625 0 25.601562 11.460937 25.601562 25.597656v76.800781h-59.734374c-4.710938 0-8.53125 3.820313-8.53125 8.535157 0 4.710937 3.820312 8.53125 8.53125 8.53125h59.734374v102.402343h-59.734374c-4.710938 0-8.53125 3.820313-8.53125 8.53125 0 4.714844 3.820312 8.535157 8.53125 8.535157h59.734374v51.199218h-238.933593v-51.199218h59.734375c4.710937 0 8.53125-3.820313 8.53125-8.535157 0-4.710937-3.820313-8.53125-8.53125-8.53125h-59.734375v-102.402343h59.734375c4.710937 0 8.53125-3.820313 8.53125-8.53125 0-4.714844-3.820313-8.535157-8.53125-8.535157h-59.734375v-76.800781c0-14.136719 11.460937-25.597656 25.601562-25.597656zm0 0" data-original="#000000" class="active-path" data-old_color="#01607E" fill="#FE473E"/><path d="m512.007812 333.320312c.140626-10.597656-6.175781-20.210937-15.957031-24.289062-9.269531-3.828125-19.941406-1.539062-26.820312 5.761719-10.558594 11.164062-18.90625 24.230469-24.59375 38.503906-.46875-.640625-.792969-1.296875-1.304688-1.921875-9.875-10.789062-23.636719-17.207031-38.246093-17.84375-11.957032-9.191406-23.25-19.214844-33.792969-29.992188-1.890625-11.214843.515625-22.730468 6.742187-32.25 3.464844-4.453124 8.867188-6.960937 14.507813-6.738281 4.710937 0 8.53125-3.824219 8.53125-8.535156 0-4.714844-3.820313-8.535156-8.53125-8.535156-10.828125-.230469-21.132813 4.632812-27.835938 13.132812-5.148437 6.863281-8.539062 14.882813-9.875 23.359375-13.789062-17.8125-21.507812-39.574218-22.023437-62.089844.128906-25.816406 9.707031-50.691406 26.929687-69.921874 18.195313 7.796874 37.039063 13.976562 56.320313 18.464843 28.761718 8.816407 56.734375 20.019531 83.628906 33.492188h.132812c1.136719.570312 2.386719.875 3.652344.898437.84375 0 1.683594-.128906 2.484375-.386718.308594-.121094.609375-.261719.90625-.417969.464844-.167969.910157-.378907 1.339844-.628907l.066406-.070312.128907-.066406c.769531-.566406 1.4375-1.257813 1.972656-2.046875.140625-.207031.273437-.421875.390625-.640625.410156-.691406.71875-1.441406.914062-2.21875 0-.1875.128907-.359375.160157-.546875.160156-.84375.191406-1.707031.09375-2.558594-4.410157-35.3125-12.96875-103.570313-42.214844-141.851563 10.480468-12.625 16.363281-28.429687 16.691406-44.832031 0-4.714843-3.820312-8.535156-8.53125-8.535156-4.714844 0-8.535156 3.820313-8.535156 8.535156-.242188 11.648438-4.253906 22.90625-11.433594 32.082031-10.941406-9.753906-25.109375-15.105468-39.765625-15.015624-23.59375 0-40.6875 6.246093-50.789063 18.574218-.511718.625-.855468 1.28125-1.304687 1.921875-5.6875-14.277343-14.035156-27.347656-24.59375-38.511719-6.875-7.304687-17.550781-9.601562-26.820313-5.769531-9.78125 4.074219-16.101562 13.691407-15.957031 24.285157-.082031 11.203124 7.011719 21.195312 17.613281 24.816406 10.457032 4.128906 20.140626 9.996094 28.644532 17.347656-6.496094 1.003906-12.628906 3.644531-17.816406 7.679688-7.707032 6.566406-11.910157 16.347656-11.375 26.453124 0 17.632813 11.578124 30.976563 28.578124 41.429688-10.773437 13.210938-18.875 28.394531-23.851562 44.699219-4.84375-6.292969-10.59375-11.828125-17.066406-16.425781-3.914063-2.523438-9.125-1.441407-11.714844 2.425781-2.585938 3.871093-1.597656 9.101562 2.226562 11.753906.21875.15625 21.828126 14.976563 21.828126 35.585937 0 48.128907 31.058593 84.683594 63.332031 112.417969-61.019531 13.746094-74.402344 120.679688-80.332031 168.105469-.097657.855469-.0625 1.71875.09375 2.5625 0 .1875.121093.355469.164062.542969.195312.78125.5 1.527343.910156 2.21875.121094.222656.25.4375.394532.640625.535156.792968 1.199218 1.484375 1.972656 2.046875l.125.070312.070312.066407c.425782.25.875.460937 1.339844.632812.292969.15625.59375.292969.902344.417969.804687.265625 1.644531.402343 2.492187.410156 1.273438-.003906 2.527344-.296875 3.671875-.851563h.132813c26.894531-13.476562 54.867187-24.679687 83.628906-33.496093 39.882813-9.972657 84.703125-24.804688 96.972656-52.617188 1.984375 3.039063 3.132813 6.542969 3.328125 10.164063 0 56.851562-78.191406 59.734375-93.867187 59.734375-4.710938 0-8.53125 3.820312-8.53125 8.53125 0 4.714843 3.820312 8.535156 8.53125 8.535156 53.632812 0 110.933593-20.171875 110.933593-76.800781 0-10.972656-5.769531-21.863282-17.921874-34.074219-1.3125-7.011719-5.027344-13.347656-10.503907-17.917969-5.191406-4.035156-11.324219-6.679687-17.824219-7.679687 8.507813-7.347657 18.195313-13.207031 28.652344-17.332031 10.621094-3.636719 17.714844-13.667969 17.597656-24.890626zm-93.867187-290.636718c42.820313 0 61.550781 58.28125 71.792969 119.601562-57.03125-76.355468-97.042969-91.304687-114.714844-93.722656.402344-4.996094 2.300781-9.753906 5.453125-13.652344 6.75-8.132812 19.34375-12.226562 37.46875-12.226562zm-102.398437-16.566406c-.160157-3.652344 1.957031-7.027344 5.316406-8.472657.898437-.363281 1.855468-.554687 2.824218-.5625 2.039063.019531 3.980469.894531 5.339844 2.414063 8.40625 8.878906 15.160156 19.191406 19.933594 30.449218-8.332031-6.417968-17.582031-11.539062-27.441406-15.199218-3.640625-1.289063-6.046875-4.765625-5.972656-8.628906zm17.066406 76.296874c-.445313-4.960937 1.449218-9.847656 5.121094-13.214843 5.335937-3.519531 11.675781-5.203125 18.054687-4.804688 3.117187-.015625 6.230469.25 9.300781.785157.449219.074218.902344.109374 1.355469.101562.113281 0 .214844.066406.316406.066406h.214844c.246094 0 .484375-.050781.726563-.074218h.246093c.460938 0 41.191407-3.320313 110.078125 89.820312-18.742187-8.554688-38.117187-15.648438-57.957031-21.214844-21.675781-5.382812-87.457031-21.859375-87.457031-51.464844zm59.734375 247.46875c18.121093 0 30.71875 4.09375 37.46875 12.183594 3.160156 3.914063 5.066406 8.691406 5.460937 13.707032-17.671875 2.414062-57.6875 17.347656-114.722656 93.710937 10.238281-61.3125 28.972656-119.601563 71.792969-119.601563zm85.332031 59.734376c0 29.601562-65.785156 46.078124-87.40625 51.453124-19.839844 5.566407-39.214844 12.660157-57.960938 21.214844 68.847657-93.132812 109.59375-89.871094 109.824219-89.855468.230469.015624.25 0 .375 0 .253907.042968.511719.074218.769531.09375.085938.011718.175782.023437.265626.027343.117187 0 .230468-.070312.347656-.078125.4375.007813.875-.019531 1.308594-.085937l.28125-.042969h.074218c9.199219-2.003906 18.816406-.558594 27.019532 4.0625 3.660156 3.371094 5.546874 8.253906 5.101562 13.210938zm11.09375-67.671876c-9.859375 3.660157-19.113281 8.789063-27.445312 15.207032 4.78125-11.257813 11.53125-21.570313 19.933593-30.457032 1.363281-1.515624 3.304688-2.390624 5.34375-2.414062.96875.007812 1.925781.195312 2.824219.554688 3.359375 1.445312 5.476562 4.820312 5.316406 8.472656.078125 3.867187-2.328125 7.347656-5.972656 8.636718zm0 0" data-original="#000000" class="active-path" data-old_color="#01607E" fill="#FE473E"/></g> </svg>
