<?xml version="1.0"?>
<svg xmlns="http://www.w3.org/2000/svg" viewBox="0 0 64 64" width="512px" height="512px"><g><g id="Medical_Research" data-name="Medical Research"><path d="M38,53a1,1,0,0,1-1,1H5a1,1,0,0,1-1-1V11a1,1,0,0,1,1-1H8v6a1,1,0,0,0,1.832.555L11,14.8l1.168,1.752A1,1,0,0,0,14,16V10H37a1,1,0,0,1,1,1v3h2V11a3,3,0,0,0-3-3H5a3,3,0,0,0-3,3V53a3,3,0,0,0,3,3H37a3,3,0,0,0,3-3V50H38ZM12,10v2.7l-.168-.252a1,1,0,0,0-1.664,0L10,12.7V10Z" data-original="#000000" class="active-path" data-old_color="#SUBHEA" fill="#01607E"/><rect x="8" y="20" width="4" height="2" data-original="#000000" class="active-path" data-old_color="#SUBHEA" fill="#01607E"/><rect x="14" y="20" width="10" height="2" data-original="#000000" class="active-path" data-old_color="#SUBHEA" fill="#01607E"/><rect x="8" y="24" width="20" height="2" data-original="#000000" class="active-path" data-old_color="#SUBHEA" fill="#01607E"/><rect x="8" y="30" width="20" height="2" data-original="#000000" class="active-path" data-old_color="#SUBHEA" fill="#01607E"/><rect x="8" y="34" width="20" height="2" data-original="#000000" class="active-path" data-old_color="#SUBHEA" fill="#01607E"/><rect x="8" y="38" width="20" height="2" data-original="#000000" class="active-path" data-old_color="#SUBHEA" fill="#01607E"/><rect x="8" y="42" width="20" height="2" data-original="#000000" class="active-path" data-old_color="#SUBHEA" fill="#01607E"/><path d="M61,20H52V17a1,1,0,0,0-1-1H41a1,1,0,0,0-1,1v3H31a1,1,0,0,0-1,1v6a1,1,0,0,0,.8.98l.2.04V45a3,3,0,0,0,3,3H58a3,3,0,0,0,3-3V28.02l.2-.04A1,1,0,0,0,62,27V21A1,1,0,0,0,61,20ZM42,18h8v2H42ZM32,22H60v4.181L50.9,28H41.1L32,26.181ZM59,45a1,1,0,0,1-1,1H34a1,1,0,0,1-1-1V28.42l7.8,1.56A1,1,0,0,0,41,30H51a1,1,0,0,0,.2-.02L59,28.42Z" data-original="#000000" class="active-path" data-old_color="#SUBHEA" fill="#01607E"/><path d="M49,35V33a1,1,0,0,0-1-1H44a1,1,0,0,0-1,1v2H41a1,1,0,0,0-1,1v4a1,1,0,0,0,1,1h2v2a1,1,0,0,0,1,1h4a1,1,0,0,0,1-1V41h2a1,1,0,0,0,1-1V36a1,1,0,0,0-1-1Zm1,4H48a1,1,0,0,0-1,1v2H45V40a1,1,0,0,0-1-1H42V37h2a1,1,0,0,0,1-1V34h2v2a1,1,0,0,0,1,1h2Z" data-original="#000000" class="active-path" data-old_color="#SUBHEA" fill="#01607E"/></g></g> </svg>
