<?xml version="1.0"?>
<svg xmlns="http://www.w3.org/2000/svg" viewBox="0 0 64 64" width="512px" height="512px"><g><g id="Medicine"><path d="M31,27.667V26a2,2,0,0,0,2-2V20a2,2,0,0,0-2-2H7a2,2,0,0,0-2,2v4a2,2,0,0,0,2,2v1.667L4.605,30.862A2.994,2.994,0,0,0,4,32.67V59a3,3,0,0,0,3,3H31a3,3,0,0,0,3-3V32.67a2.981,2.981,0,0,0-.6-1.8ZM7,20h3v2h2V20h2v2h2V20h2v2h2V20h2v2h2V20h2v2h2V20h3v4H7ZM32,59a1,1,0,0,1-1,1H7a1,1,0,0,1-1-1V32.67a.973.973,0,0,1,.2-.6L8.8,28.6A1,1,0,0,0,9,28V26H29v2a1,1,0,0,0,.2.6l2.606,3.477A.965.965,0,0,1,32,32.67Z" data-original="#000000" class="active-path" data-old_color="#000000" fill="#01607E"/><path d="M27,33H11a3,3,0,0,0-3,3V54a3,3,0,0,0,3,3H27a3,3,0,0,0,3-3V36A3,3,0,0,0,27,33Zm1,21a1,1,0,0,1-1,1H11a1,1,0,0,1-1-1V36a1,1,0,0,1,1-1H27a1,1,0,0,1,1,1Z" data-original="#000000" class="active-path" data-old_color="#000000" fill="#01607E"/><path d="M25,42H22V39a1,1,0,0,0-1-1H17a1,1,0,0,0-1,1v3H13a1,1,0,0,0-1,1v4a1,1,0,0,0,1,1h3v3a1,1,0,0,0,1,1h4a1,1,0,0,0,1-1V48h3a1,1,0,0,0,1-1V43A1,1,0,0,0,25,42Zm-1,4H21a1,1,0,0,0-1,1v3H18V47a1,1,0,0,0-1-1H14V44h3a1,1,0,0,0,1-1V40h2v3a1,1,0,0,0,1,1h3Z" data-original="#000000" class="active-path" data-old_color="#000000" fill="#01607E"/><path d="M59.728,2.314A1,1,0,0,0,59,2H35a1,1,0,0,0-1,1.06l2.887,48.12A2.994,2.994,0,0,0,39,53.853V60a2,2,0,0,0,2,2H53a2,2,0,0,0,2-2V53.853a2.994,2.994,0,0,0,2.111-2.673L60,3.06A1,1,0,0,0,59.728,2.314ZM38,4V7h2V4h2V7h2V4h2V7h2V4h2V7h2V4h2V7h2V4h1.938L57.7,8H36.3l-.24-4ZM53,60H41V54H53Zm2.115-8.939a1,1,0,0,1-1,.939H39.884a1,1,0,0,1-1-.939L36.422,10H57.578Z" data-original="#000000" class="active-path" data-old_color="#000000" fill="#01607E"/><rect x="46" y="55" width="2" height="4" data-original="#000000" class="active-path" data-old_color="#000000" fill="#01607E"/><rect x="50" y="55" width="2" height="4" data-original="#000000" class="active-path" data-old_color="#000000" fill="#01607E"/><rect x="42" y="55" width="2" height="4" data-original="#000000" class="active-path" data-old_color="#000000" fill="#01607E"/><path d="M49,24H45a1,1,0,0,0-1,1v2H42a1,1,0,0,0-1,1v4a1,1,0,0,0,1,1h2v2a1,1,0,0,0,1,1h4a1,1,0,0,0,1-1V33h2a1,1,0,0,0,1-1V28a1,1,0,0,0-1-1H50V25A1,1,0,0,0,49,24Zm2,5v2H49a1,1,0,0,0-1,1v2H46V32a1,1,0,0,0-1-1H43V29h2a1,1,0,0,0,1-1V26h2v2a1,1,0,0,0,1,1Z" data-original="#000000" class="active-path" data-old_color="#000000" fill="#01607E"/><rect x="39" y="19" width="16" height="2" data-original="#000000" class="active-path" data-old_color="#000000" fill="#01607E"/><rect x="40" y="39" width="14" height="2" data-original="#000000" class="active-path" data-old_color="#000000" fill="#01607E"/></g></g> </svg>
