<?xml version="1.0"?>
<svg xmlns="http://www.w3.org/2000/svg" height="512px" viewBox="0 0 512.09534 512" width="512px"><g><path d="m488.488281 351.621094c9.53125-5.660156 17.371094-13.773438 22.707031-23.492188 2.105469-4.21875.394532-9.34375-3.824218-11.453125-4.21875-2.105469-9.34375-.394531-11.453125 3.824219-4.296875 7.457031-10.585938 13.574219-18.15625 17.664062-1.84375-17.230468-12.410157-54.398437-68.070313-63.148437v-164.035156c0-.1875-.09375-.347657-.113281-.535157-.042969-.75-.1875-1.488281-.433594-2.195312-.09375-.273438-.164062-.546875-.28125-.808594-.417969-.929687-.992187-1.773437-1.707031-2.492187l-102.402344-102.402344c-.738281-.722656-1.605468-1.300781-2.558594-1.707031-.238281-.101563-.476562-.167969-.726562-.253906-.742188-.265626-1.523438-.417969-2.3125-.460938-.136719.007812-.28125-.078125-.441406-.078125h-170.667969c-14.136719 0-25.601563 11.460937-25.601563 25.601563v153.597656c0 4.714844 3.824219 8.535156 8.535157 8.535156 4.714843 0 8.535156-3.820312 8.535156-8.535156v-153.597656c0-4.714844 3.820313-8.535157 8.53125-8.535157h162.132813v59.734375c.027343 23.550782 19.113281 42.636719 42.667968 42.667969h59.734375v153.828125c-2.902343-.152344-5.710937-.230469-8.535156-.230469-90.171875 0-100.914063 66.484375-108.023437 110.472657-.902344 5.625-1.765626 10.964843-2.738282 15.855468-7.527344 37.617188-32.574218 81.066406-51.328125 92.5625-4.863281 1.542969-8.210937 2.558594-9.769531 2.976563h-84.140625c-4.710937 0-8.53125-3.820313-8.53125-8.53125v-179.203125c0-4.710938-3.820313-8.53125-8.535156-8.53125-4.710938 0-8.535157 3.820312-8.535157 8.53125v179.203125c0 14.136719 11.464844 25.597656 25.601563 25.597656h85.332031c151.117188 0 298.667969-7.253906 298.667969-93.867187 0-36.554688-11.945313-56.15625-23.558594-66.558594zm-155.640625-249.171875c-14.140625 0-25.601562-11.464844-25.601562-25.601563v-47.667968l73.269531 73.269531zm127.898438 237.566406c.371094 2.90625 1.191406 5.734375 2.429687 8.386719-6.824219 7.871094-14.074219 15.40625-21.75 22.613281-2.558593-19.683594-10.019531-51.265625-31.460937-72.53125-2.707032-2.644531-5.605469-5.082031-8.679688-7.289063 47.199219 5.242188 57.683594 32.09375 59.460938 48.820313zm-200.535156 134.5625c2.152343-3.328125 4.222656-6.765625 6.210937-10.316406.445313-.792969.855469-1.605469 1.300781-2.40625 1.550782-2.84375 3.046875-5.730469 4.488282-8.652344.535156-1.085937 1.066406-2.167969 1.578124-3.261719 1.5-3.171875 2.921876-6.359375 4.265626-9.558594.238281-.570312.503906-1.140624.742187-1.703124 1.523437-3.734376 2.933594-7.445313 4.222656-11.136719.359375-1.007813.675781-1.996094 1.015625-2.996094.402344-1.203125.855469-2.414063 1.203125-3.609375 9.625-2.761719 19.949219-1.617188 28.734375 3.183594 7.941406 5.539062 13.789063 13.585937 16.605469 22.851562-24.015625 12.339844-48.703125 23.320313-73.949219 32.894532.757813-1.082032 1.492188-2.191407 2.234375-3.300782.453125-.683594.914063-1.316406 1.347657-1.988281zm43.042968-133.308594c54.722656-.597656 74.179688 57.242188 78.984375 75.769531-12.101562 7.898438-24.328125 15.171876-36.421875 21.816407-4.246094-11.890625-12.199218-22.105469-22.6875-29.140625-9.914062-6.035156-21.59375-8.503906-33.101562-6.996094 1.007812-5.058594 1.910156-10.589844 2.839844-16.402344 2.019531-15.3125 5.496093-30.394531 10.386718-45.046875zm36.589844 120.429688c7.328125 7.730469 11.105469 18.15625 10.4375 28.785156-26.410156 2.328125-54.785156 3.480469-83.628906 4.027344 24.988281-9.566407 49.425781-20.519531 73.191406-32.8125zm15.464844-8.300781c12.199218-6.757813 24.558594-14.140626 36.800781-22.1875 15.71875 11.550781 24.675781 30.15625 23.894531 49.648437-15.996094 3.515625-32.175781 6.15625-48.460937 7.902344.15625-12.84375-4.171875-25.335938-12.234375-35.328125zm51.558594-32.28125c10.304687-7.304688 20.425781-15.085938 30.214843-23.355469 9.71875 1.355469 39.671875 9.386719 42.71875 54.542969-13.542969 11.535156-29.566406 19.789062-46.824219 24.117187-.417968-21.304687-9.917968-41.417969-26.109374-55.269531zm-51.953126-127.523438c16.003907-.273438 31.464844 5.824219 42.972657 16.949219 23.042969 22.832031 27.007812 62.164062 27.699219 74.527343-9.171876 7.679688-18.679688 14.96875-28.378907 21.820313-9.6875-32.886719-35.839843-78.265625-85.90625-82.335937 9.703125-15.839844 25.460938-27.027344 43.613281-30.960938zm138.523438 136.601562c-5.105469-21.246093-20.5625-38.492187-41.125-45.882812 7.601562-7.140625 14.871094-14.625 21.804688-22.453125 7.808593 5.683594 20.863281 20.53125 20.863281 56.320313.011719 4.054687-.507813 8.097656-1.542969 12.015624zm0 0" data-original="#000000" class="active-path" data-old_color="#000000" fill="#FE473E"/><path d="m273.113281 136.582031h-34.132812c-9.425781 0-17.066407 7.640625-17.066407 17.066407l.265626 17.066406h-17.332032c-9.425781 0-17.066406 7.640625-17.066406 17.066406v34.132812c0 9.425782 7.640625 17.066407 17.066406 17.066407l17.066406-.253907v17.320313c0 9.425781 7.640626 17.066406 17.066407 17.066406h34.132812c9.425781 0 17.066407-7.640625 17.066407-17.066406l-.261719-17.066406h17.328125c9.425781 0 17.066406-7.640625 17.066406-17.066407v-34.132812c0-9.425781-7.640625-17.066406-17.066406-17.066406l-17.066406.253906v-17.320312c0-9.425782-7.640626-17.066407-17.066407-17.066407zm34.132813 51.199219v34.132812h-17.328125c-9.277344.015626-16.792969 7.535157-16.804688 16.8125v17.320313h-34.132812v-17.320313c-.007813-9.277343-7.523438-16.796874-16.800781-16.8125h-17.332032v-34.132812h17.332032c9.277343-.015625 16.792968-7.535156 16.800781-16.8125v-17.320312h34.132812v17.320312c.011719 9.277344 7.527344 16.796875 16.804688 16.8125zm0 0" data-original="#000000" class="active-path" data-old_color="#000000" fill="#FE473E"/><path d="m145.113281 110.980469h119.46875c4.710938 0 8.53125-3.820313 8.53125-8.53125 0-4.714844-3.820312-8.535157-8.53125-8.535157h-119.46875c-4.710937 0-8.53125 3.820313-8.53125 8.535157 0 4.710937 3.820313 8.53125 8.53125 8.53125zm0 0" data-original="#000000" class="active-path" data-old_color="#000000" fill="#FE473E"/><path d="m273.113281 315.78125c0-4.714844-3.820312-8.535156-8.53125-8.535156h-119.46875c-4.710937 0-8.53125 3.820312-8.53125 8.535156 0 4.710938 3.820313 8.53125 8.53125 8.53125h119.46875c4.710938 0 8.53125-3.820312 8.53125-8.53125zm0 0" data-original="#000000" class="active-path" data-old_color="#000000" fill="#FE473E"/><path d="m145.113281 358.449219h59.734375c4.710938 0 8.53125-3.820313 8.53125-8.535157 0-4.710937-3.820312-8.53125-8.53125-8.53125h-59.734375c-4.710937 0-8.53125 3.820313-8.53125 8.53125 0 4.714844 3.820313 8.535157 8.53125 8.535157zm0 0" data-original="#000000" class="active-path" data-old_color="#000000" fill="#FE473E"/><path d="m256.046875 384.046875c0-4.710937-3.820313-8.53125-8.53125-8.53125h-102.402344c-4.710937 0-8.53125 3.820313-8.53125 8.53125 0 4.714844 3.820313 8.535156 8.53125 8.535156h102.402344c4.710937 0 8.53125-3.820312 8.53125-8.535156zm0 0" data-original="#000000" class="active-path" data-old_color="#000000" fill="#FE473E"/><path d="m145.113281 426.714844h51.199219c4.714844 0 8.535156-3.820313 8.535156-8.535156 0-4.710938-3.820312-8.53125-8.535156-8.53125h-51.199219c-4.710937 0-8.53125 3.820312-8.53125 8.53125 0 4.714843 3.820313 8.535156 8.53125 8.535156zm0 0" data-original="#000000" class="active-path" data-old_color="#000000" fill="#FE473E"/><path d="m145.113281 460.847656h85.332031c4.714844 0 8.535157-3.820312 8.535157-8.535156 0-4.710938-3.820313-8.53125-8.535157-8.53125h-85.332031c-4.710937 0-8.53125 3.820312-8.53125 8.53125 0 4.714844 3.820313 8.535156 8.53125 8.535156zm0 0" data-original="#000000" class="active-path" data-old_color="#000000" fill="#FE473E"/><path d="m145.113281 76.847656h76.800781c4.710938 0 8.53125-3.820312 8.53125-8.535156 0-4.710938-3.820312-8.53125-8.53125-8.53125h-76.800781c-4.710937 0-8.53125 3.820312-8.53125 8.53125 0 4.714844 3.820313 8.535156 8.53125 8.535156zm0 0" data-original="#000000" class="active-path" data-old_color="#000000" fill="#FE473E"/><path d="m124.394531 281.484375 6.128907 6.171875c2.09375 2.367188 5.324218 3.382812 8.398437 2.640625 3.074219-.746094 5.484375-3.128906 6.261719-6.191406.78125-3.066407-.199219-6.308594-2.542969-8.429688l-5.976563-6.042969c-.15625-16.464843-6.390624-32.289062-17.507812-44.433593l-61.601562-67.285157-11.675782-12.757812c-4.847656-5.332031-11.6875-8.417969-18.890625-8.53125-7.238281-.300781-14.253906 2.523438-19.261719 7.753906-10.015624 10.085938-10.335937 26.265625-.726562 36.738282l12.675781 13.796874 59.730469 65.253907c11.65625 12.683593 27.792969 20.332031 44.988281 21.316406zm-5.214843-17.707031c-10.453126-1.96875-19.988282-7.277344-27.175782-15.121094l-54.257812-59.269531 13.253906-13.363281 55.542969 60.660156c6.890625 7.523437 11.304687 16.980468 12.636719 27.09375zm-99.308594-107.382813c1.519531-1.480469 3.507812-2.382812 5.621094-2.558593.378906-.089844.761718-.152344 1.144531-.1875 2.539062.046874 4.949219 1.140624 6.65625 3.019531l6.167969 6.75-13.25 13.371093-6.597657-7.199218c-3.445312-3.765625-3.332031-9.570313.257813-13.195313zm0 0" data-original="#000000" class="active-path" data-old_color="#000000" fill="#FE473E"/></g> </svg>
